<?xml version="1.0" standalone="no"?>
<!DOCTYPE svg PUBLIC "-//W3C//DTD SVG 20010904//EN"
 "http://www.w3.org/TR/2001/REC-SVG-20010904/DTD/svg10.dtd">
<svg version="1.0" xmlns="http://www.w3.org/2000/svg"
 width="900.000000pt" height="853.000000pt" viewBox="0 0 900.000000 853.000000"
 preserveAspectRatio="xMidYMid meet">
<metadata>
Created by potrace 1.16, written by Peter Selinger 2001-2019
</metadata>
<g transform="translate(0.000000,853.000000) scale(0.100000,-0.100000)"
fill="#000000" stroke="none">
<path d="M6225 7460 c-59 -29 -93 -39 -131 -39 -69 -1 -184 -32 -296 -79 -125
-53 -3329 -1557 -3492 -1639 -129 -66 -270 -163 -298 -205 -9 -13 -84 -57
-177 -103 -88 -44 -161 -83 -161 -88 0 -5 64 -146 143 -315 l142 -307 5 -1795
c4 -1450 8 -1801 18 -1825 16 -37 67 -91 107 -113 28 -16 213 -17 2420 -20
1690 -2 2405 0 2441 8 62 13 120 59 145 114 16 35 19 68 19 226 0 140 4 203
18 260 16 70 17 179 17 1515 0 1336 -1 1445 -17 1515 -10 41 -18 111 -18 155
0 70 -4 86 -30 131 -23 41 -41 58 -82 78 -28 14 -64 26 -79 26 -15 0 -55 13
-90 30 -167 77 -206 80 -1364 80 -550 0 -1112 5 -1250 10 -386 15 -534 45
-623 126 -43 38 -47 46 -47 86 0 58 40 120 96 149 l42 21 -29 17 c-16 9 -188
102 -382 205 -194 104 -350 192 -345 196 4 4 65 33 134 64 l126 57 385 -206
385 -206 217 102 c119 56 215 104 213 106 -2 2 -38 -13 -81 -32 l-76 -36 -381
204 c-209 112 -381 208 -381 213 0 4 58 35 129 67 l128 58 387 -207 c213 -114
385 -211 382 -215 -3 -5 37 11 88 35 51 23 184 85 295 137 111 52 203 96 203
99 0 3 -173 98 -384 210 -211 113 -381 208 -378 211 4 3 65 32 136 65 l129 58
36 -20 c20 -12 194 -105 388 -208 l352 -188 220 103 c121 57 217 107 213 110
-4 4 -173 96 -377 204 -203 109 -374 201 -379 206 -8 7 124 75 229 117 29 12
45 5 420 -196 l390 -208 105 49 c58 27 108 52 113 56 4 4 -164 99 -373 210
-209 112 -382 207 -385 211 -2 4 56 34 129 67 l133 60 387 -207 c381 -204 419
-220 433 -184 8 21 -284 655 -302 653 -5 0 -46 -18 -90 -39z m-3817 -2325 c36
-42 31 -98 -13 -142 -32 -32 -39 -35 -78 -30 -83 11 -121 92 -77 164 34 57
121 61 168 8z m1795 -209 c-4 -8 -120 -160 -258 -339 l-249 -325 -111 -7 c-60
-4 -126 -5 -146 -3 l-36 3 257 335 257 335 54 6 c30 3 96 6 147 7 77 2 92 0
85 -12z m655 -3 c-8 -10 -126 -163 -261 -340 l-247 -321 -102 -7 c-57 -4 -123
-5 -147 -3 l-43 3 257 335 257 335 57 6 c31 3 98 6 150 7 89 2 93 1 79 -15z
m783 -10 c-11 -16 -127 -167 -258 -338 l-239 -310 -74 -8 c-41 -4 -108 -6
-148 -5 l-73 3 258 337 258 336 55 4 c30 2 97 5 148 6 l93 2 -20 -27z m767 19
c-1 -5 -118 -158 -258 -340 l-254 -332 -82 0 c-44 0 -109 -3 -144 -7 -43 -4
-62 -3 -59 5 3 9 208 278 452 594 l68 88 140 0 c77 0 139 -4 137 -8z m550 0
c-1 -5 -119 -160 -262 -345 l-259 -337 -145 0 -144 0 34 43 c19 23 137 176
262 339 l228 297 126 4 c70 1 135 4 145 5 10 1 17 -2 15 -6z m-4722 -226 c26
-26 34 -42 34 -71 0 -49 -53 -105 -100 -105 -66 0 -109 43 -110 108 0 61 41
102 100 102 34 0 48 -6 76 -34z m319 12 c75 -66 32 -188 -66 -188 -29 0 -47 8
-71 29 -28 25 -33 36 -33 76 0 40 5 51 33 76 41 37 98 40 137 7z m4135 -696
c19 -9 45 -32 57 -51 21 -31 23 -45 23 -181 0 -136 -2 -150 -22 -180 -13 -18
-39 -41 -58 -51 -33 -18 -110 -19 -2118 -19 -2308 0 -2125 -5 -2175 64 -20 28
-22 45 -25 179 -3 144 -3 150 21 186 51 77 -151 71 2177 71 1965 0 2087 -1
2120 -18z m-92 -1730 l2 -973 -1277 6 c-703 4 -1628 6 -2055 6 l-778 -1 0 970
0 970 2053 -2 2052 -3 3 -973z"/>
<path d="M2510 3015 l0 -235 755 0 755 0 0 235 0 235 -755 0 -755 0 0 -235z"/>
<path d="M4060 3015 l0 -235 1255 0 1255 0 0 235 0 235 -1255 0 -1255 0 0
-235z"/>
<path d="M2510 2525 l0 -235 755 0 755 0 0 235 0 235 -755 0 -755 0 0 -235z"/>
<path d="M4067 2753 c-4 -3 -7 -109 -7 -235 l0 -228 1255 0 1255 0 0 235 0
235 -1248 0 c-687 0 -1252 -3 -1255 -7z"/>
<path d="M2510 2050 l0 -220 765 0 765 0 0 220 0 220 -765 0 -765 0 0 -220z"/>
<path d="M4060 2050 l0 -220 755 0 755 0 0 220 0 220 -755 0 -755 0 0 -220z"/>
<path d="M5612 2048 l3 -223 483 -3 482 -2 0 225 0 225 -485 0 -485 0 2 -222z"/>
<path d="M2510 1570 l0 -220 765 0 765 0 0 220 0 220 -765 0 -765 0 0 -220z"/>
<path d="M4060 1570 l0 -220 755 0 755 0 0 220 0 220 -755 0 -755 0 0 -220z"/>
<path d="M5610 1565 l0 -225 485 0 485 0 0 225 0 225 -485 0 -485 0 0 -225z"/>
<path d="M4430 5820 c-19 -11 -30 -19 -25 -19 6 0 26 8 45 19 19 11 31 19 25
19 -5 0 -26 -8 -45 -19z"/>
</g>
</svg>
